<mxfile host="65bd71144e">
    <diagram id="FW_BhHujlwmwR-374dnn" name="Page-1">
        <mxGraphModel dx="854" dy="688" grid="1" gridSize="10" guides="1" tooltips="1" connect="1" arrows="1" fold="1" page="1" pageScale="1" pageWidth="1100" pageHeight="1700" math="0" shadow="0">
            <root>
                <mxCell id="0"/>
                <mxCell id="1" parent="0"/>
                <mxCell id="2" value="&lt;h1&gt;&lt;span&gt;Clase&amp;nbsp;&lt;/span&gt;Billete&lt;/h1&gt;&lt;div&gt;Valor: 50&lt;/div&gt;&lt;div&gt;Cantidad: 3&lt;/div&gt;" style="text;html=1;strokeColor=#6F0000;fillColor=#a20025;spacing=5;spacingTop=-20;whiteSpace=wrap;overflow=hidden;rounded=0;fontColor=#ffffff;" parent="1" vertex="1">
                    <mxGeometry x="10" y="10" width="190" height="120" as="geometry"/>
                </mxCell>
                <mxCell id="5" value="Creanto&amp;nbsp; un array de tipo&lt;br&gt;Billete" style="text;html=1;align=center;verticalAlign=middle;whiteSpace=wrap;rounded=0;fontSize=16;strokeColor=default;" parent="1" vertex="1">
                    <mxGeometry x="10" y="140" width="190" height="50" as="geometry"/>
                </mxCell>
                <mxCell id="7" value="&lt;div&gt;&lt;span&gt;Caja = [ ]&lt;/span&gt;&lt;/div&gt;&lt;div&gt;&lt;span&gt;50: 3&lt;/span&gt;&lt;/div&gt;&lt;div&gt;&lt;span&gt;20: 2&lt;/span&gt;&lt;/div&gt;&lt;div&gt;&lt;span&gt;10: 2&lt;/span&gt;&lt;/div&gt;" style="text;html=1;align=center;verticalAlign=middle;whiteSpace=wrap;rounded=0;fontSize=16;strokeColor=default;" parent="1" vertex="1">
                    <mxGeometry x="10" y="210" width="190" height="110" as="geometry"/>
                </mxCell>
                <mxCell id="8" value="Creacion de variable&lt;br&gt;Dinero &quot;El valor que el usuario quiere&quot;" style="text;html=1;align=center;verticalAlign=middle;whiteSpace=wrap;rounded=0;fontSize=16;strokeColor=default;" parent="1" vertex="1">
                    <mxGeometry x="10" y="340" width="190" height="80" as="geometry"/>
                </mxCell>
                <mxCell id="9" value="&lt;div&gt;dinero = 110&lt;/div&gt;" style="text;html=1;align=center;verticalAlign=middle;whiteSpace=wrap;rounded=0;fontSize=16;strokeColor=default;" parent="1" vertex="1">
                    <mxGeometry x="10" y="430" width="190" height="40" as="geometry"/>
                </mxCell>
                <mxCell id="10" value="Creacion de un array del dinero que se va a entregar" style="text;html=1;align=center;verticalAlign=middle;whiteSpace=wrap;rounded=0;fontSize=16;strokeColor=default;" parent="1" vertex="1">
                    <mxGeometry x="10" y="490" width="190" height="80" as="geometry"/>
                </mxCell>
                <mxCell id="11" value="entregado = [ ]" style="text;html=1;align=center;verticalAlign=middle;whiteSpace=wrap;rounded=0;fontSize=16;strokeColor=default;" parent="1" vertex="1">
                    <mxGeometry x="10" y="580" width="190" height="40" as="geometry"/>
                </mxCell>
                <mxCell id="14" value="" style="edgeStyle=none;html=1;fontSize=16;" parent="1" source="12" target="13" edge="1">
                    <mxGeometry relative="1" as="geometry"/>
                </mxCell>
                <mxCell id="12" value="for b of caja&amp;nbsp;" style="shape=hexagon;perimeter=hexagonPerimeter2;whiteSpace=wrap;html=1;fixedSize=1;fontSize=16;strokeColor=default;" parent="1" vertex="1">
                    <mxGeometry x="625" y="40" width="200" height="70" as="geometry"/>
                </mxCell>
                <mxCell id="15" style="edgeStyle=none;html=1;fontSize=16;" parent="1" source="13" edge="1">
                    <mxGeometry relative="1" as="geometry">
                        <mxPoint x="760" y="310" as="targetPoint"/>
                        <Array as="points">
                            <mxPoint x="880" y="220"/>
                            <mxPoint x="880" y="310"/>
                        </Array>
                    </mxGeometry>
                </mxCell>
                <mxCell id="20" style="edgeStyle=none;html=1;entryX=0.5;entryY=0;entryDx=0;entryDy=0;fontSize=16;" parent="1" source="13" target="16" edge="1">
                    <mxGeometry relative="1" as="geometry"/>
                </mxCell>
                <mxCell id="97" style="edgeStyle=none;html=1;exitX=0;exitY=0.5;exitDx=0;exitDy=0;fontSize=16;entryX=0.5;entryY=0;entryDx=0;entryDy=0;" parent="1" source="13" target="96" edge="1">
                    <mxGeometry relative="1" as="geometry">
                        <mxPoint x="399.9999999999998" y="224.9411764705883" as="targetPoint"/>
                        <Array as="points">
                            <mxPoint x="400" y="225"/>
                        </Array>
                    </mxGeometry>
                </mxCell>
                <mxCell id="13" value="dinero &amp;gt;0" style="rhombus;whiteSpace=wrap;html=1;fontSize=16;" parent="1" vertex="1">
                    <mxGeometry x="650" y="185" width="150" height="80" as="geometry"/>
                </mxCell>
                <mxCell id="22" value="" style="edgeStyle=none;html=1;fontSize=16;" parent="1" source="16" target="21" edge="1">
                    <mxGeometry relative="1" as="geometry"/>
                </mxCell>
                <mxCell id="16" value="SI" style="text;html=1;align=center;verticalAlign=middle;whiteSpace=wrap;rounded=0;fontSize=16;strokeWidth=2;strokeColor=default;" parent="1" vertex="1">
                    <mxGeometry x="695" y="300" width="60" height="30" as="geometry"/>
                </mxCell>
                <mxCell id="24" value="" style="edgeStyle=none;html=1;fontSize=16;" parent="1" source="21" target="23" edge="1">
                    <mxGeometry relative="1" as="geometry"/>
                </mxCell>
                <mxCell id="21" value="div = floor (dinero/b.valor)&amp;nbsp;" style="whiteSpace=wrap;html=1;fontSize=16;fillColor=none;gradientColor=none;rounded=0;strokeWidth=2;" parent="1" vertex="1">
                    <mxGeometry x="620" y="395" width="210" height="60" as="geometry"/>
                </mxCell>
                <mxCell id="26" value="" style="edgeStyle=none;html=1;fontSize=16;" parent="1" source="23" edge="1">
                    <mxGeometry relative="1" as="geometry">
                        <mxPoint x="940" y="620" as="targetPoint"/>
                        <Array as="points">
                            <mxPoint x="940" y="565"/>
                        </Array>
                    </mxGeometry>
                </mxCell>
                <mxCell id="29" style="edgeStyle=none;html=1;fontSize=16;" parent="1" source="23" edge="1">
                    <mxGeometry relative="1" as="geometry">
                        <mxPoint x="520" y="620" as="targetPoint"/>
                        <Array as="points">
                            <mxPoint x="520" y="565"/>
                        </Array>
                    </mxGeometry>
                </mxCell>
                <mxCell id="23" value="div &amp;gt; b.cantidad" style="rhombus;whiteSpace=wrap;html=1;fontSize=16;fillColor=none;gradientColor=none;rounded=0;strokeWidth=2;" parent="1" vertex="1">
                    <mxGeometry x="610" y="525" width="230" height="80" as="geometry"/>
                </mxCell>
                <mxCell id="85" value="" style="edgeStyle=none;html=1;fontSize=16;" parent="1" source="27" target="84" edge="1">
                    <mxGeometry relative="1" as="geometry"/>
                </mxCell>
                <mxCell id="27" value="NO" style="text;html=1;align=center;verticalAlign=middle;whiteSpace=wrap;rounded=0;fontSize=16;strokeWidth=2;strokeColor=default;" parent="1" vertex="1">
                    <mxGeometry x="910" y="630" width="60" height="30" as="geometry"/>
                </mxCell>
                <mxCell id="83" value="" style="edgeStyle=none;html=1;fontSize=16;" parent="1" source="30" target="82" edge="1">
                    <mxGeometry relative="1" as="geometry"/>
                </mxCell>
                <mxCell id="30" value="SI" style="text;html=1;align=center;verticalAlign=middle;whiteSpace=wrap;rounded=0;fontSize=16;strokeWidth=2;strokeColor=default;" parent="1" vertex="1">
                    <mxGeometry x="490" y="630" width="60" height="30" as="geometry"/>
                </mxCell>
                <mxCell id="88" style="edgeStyle=none;html=1;fontSize=16;entryX=0;entryY=0.5;entryDx=0;entryDy=0;" parent="1" source="82" target="90" edge="1">
                    <mxGeometry relative="1" as="geometry">
                        <mxPoint x="560" y="820" as="targetPoint"/>
                        <Array as="points">
                            <mxPoint x="520" y="850"/>
                        </Array>
                    </mxGeometry>
                </mxCell>
                <mxCell id="82" value="papeles = b.cantidad" style="whiteSpace=wrap;html=1;fontSize=16;fillColor=none;gradientColor=none;rounded=0;strokeWidth=2;" parent="1" vertex="1">
                    <mxGeometry x="440" y="725" width="160" height="60" as="geometry"/>
                </mxCell>
                <mxCell id="89" style="edgeStyle=none;html=1;exitX=0.5;exitY=1;exitDx=0;exitDy=0;fontSize=16;entryX=1;entryY=0.5;entryDx=0;entryDy=0;" parent="1" source="84" target="90" edge="1">
                    <mxGeometry relative="1" as="geometry">
                        <mxPoint x="860" y="820" as="targetPoint"/>
                        <Array as="points">
                            <mxPoint x="940" y="850"/>
                        </Array>
                    </mxGeometry>
                </mxCell>
                <mxCell id="84" value="papeles = div" style="whiteSpace=wrap;html=1;fontSize=16;fillColor=none;gradientColor=none;rounded=0;strokeWidth=2;" parent="1" vertex="1">
                    <mxGeometry x="880" y="725" width="120" height="60" as="geometry"/>
                </mxCell>
                <mxCell id="93" value="" style="edgeStyle=none;html=1;fontSize=16;" parent="1" source="90" target="92" edge="1">
                    <mxGeometry relative="1" as="geometry"/>
                </mxCell>
                <mxCell id="90" value="e.push(new billlete(b.valor,papeles))" style="rounded=0;whiteSpace=wrap;html=1;fontSize=16;strokeColor=default;strokeWidth=2;" parent="1" vertex="1">
                    <mxGeometry x="590" y="820" width="290" height="60" as="geometry"/>
                </mxCell>
                <mxCell id="95" value="" style="edgeStyle=none;html=1;fontSize=16;" parent="1" source="92" target="94" edge="1">
                    <mxGeometry relative="1" as="geometry"/>
                </mxCell>
                <mxCell id="92" value="dinero = dinero -(b.valor*papeles)" style="whiteSpace=wrap;html=1;fontSize=16;rounded=0;strokeWidth=2;" parent="1" vertex="1">
                    <mxGeometry x="600" y="960" width="270" height="60" as="geometry"/>
                </mxCell>
                <mxCell id="99" style="edgeStyle=none;html=1;exitX=0;exitY=0.5;exitDx=0;exitDy=0;entryX=0;entryY=0.5;entryDx=0;entryDy=0;fontSize=16;" edge="1" parent="1" source="94" target="12">
                    <mxGeometry relative="1" as="geometry">
                        <Array as="points">
                            <mxPoint x="280" y="1130"/>
                            <mxPoint x="280" y="580"/>
                            <mxPoint x="280" y="75"/>
                        </Array>
                    </mxGeometry>
                </mxCell>
                <mxCell id="94" value="ciclo" style="ellipse;whiteSpace=wrap;html=1;fontSize=16;rounded=0;strokeWidth=2;" parent="1" vertex="1">
                    <mxGeometry x="675" y="1100" width="120" height="60" as="geometry"/>
                </mxCell>
                <mxCell id="98" style="edgeStyle=none;html=1;exitX=0.5;exitY=1;exitDx=0;exitDy=0;fontSize=16;" edge="1" parent="1" source="96">
                    <mxGeometry relative="1" as="geometry">
                        <mxPoint x="740" y="1061" as="targetPoint"/>
                        <Array as="points">
                            <mxPoint x="400" y="1061"/>
                        </Array>
                    </mxGeometry>
                </mxCell>
                <mxCell id="96" value="NO" style="text;html=1;align=center;verticalAlign=middle;whiteSpace=wrap;rounded=0;fontSize=16;strokeWidth=2;strokeColor=default;" parent="1" vertex="1">
                    <mxGeometry x="370" y="300" width="60" height="30" as="geometry"/>
                </mxCell>
            </root>
        </mxGraphModel>
    </diagram>
</mxfile>